<mxfile host="www.draw.io" modified="2019-11-05T00:04:03.328Z" agent="Mozilla/5.0 (Windows NT 10.0; Win64; x64; rv:71.0) Gecko/20100101 Firefox/71.0" etag="cNfzuhF5a92L0Id-ze7u" version="12.2.0" type="github" pages="1">
  <diagram name="Page-1" id="0783ab3e-0a74-02c8-0abd-f7b4e66b4bec">
    <mxGraphModel dx="1024" dy="561" grid="1" gridSize="10" guides="1" tooltips="1" connect="1" arrows="1" fold="1" page="1" pageScale="1" pageWidth="850" pageHeight="1100" background="#ffffff" math="0" shadow="0">
      <root>
        <mxCell id="0"/>
        <mxCell id="1" parent="0"/>
        <mxCell id="1c1d494c118603dd-1" value="División de grupos" style="swimlane;html=1;childLayout=stackLayout;startSize=20;rounded=0;shadow=0;comic=0;labelBackgroundColor=none;strokeColor=#000000;strokeWidth=1;fillColor=#ffffff;fontFamily=Verdana;fontSize=12;fontColor=#000000;align=center;" parent="1" vertex="1">
          <mxGeometry x="40" y="20" width="750" height="990" as="geometry"/>
        </mxCell>
        <mxCell id="1c1d494c118603dd-2" value="Actor" style="swimlane;html=1;startSize=20;" parent="1c1d494c118603dd-1" vertex="1">
          <mxGeometry y="20" width="390" height="970" as="geometry"/>
        </mxCell>
        <mxCell id="60571a20871a0731-4" value="" style="ellipse;whiteSpace=wrap;html=1;rounded=0;shadow=0;comic=0;labelBackgroundColor=none;strokeColor=#000000;strokeWidth=1;fillColor=#000000;fontFamily=Verdana;fontSize=12;fontColor=#000000;align=center;" parent="1c1d494c118603dd-2" vertex="1">
          <mxGeometry x="60" y="50" width="40" height="40" as="geometry"/>
        </mxCell>
        <mxCell id="Yj37nVMUqHgawkQzmIC0-1" value="Esto inicia cuando el miembro del club ingresa sus datos válidos para unirse a un club" style="shape=note;whiteSpace=wrap;html=1;rounded=0;shadow=0;comic=0;labelBackgroundColor=none;strokeColor=#82b366;strokeWidth=1;fillColor=#d5e8d4;fontFamily=Verdana;fontSize=12;align=center;size=22;" vertex="1" parent="1c1d494c118603dd-2">
          <mxGeometry x="130" y="40" width="190" height="66" as="geometry"/>
        </mxCell>
        <mxCell id="1c1d494c118603dd-27" style="edgeStyle=orthogonalEdgeStyle;rounded=0;html=1;labelBackgroundColor=none;startArrow=none;startFill=0;startSize=5;endArrow=classicThin;endFill=1;endSize=5;jettySize=auto;orthogonalLoop=1;strokeColor=#000000;strokeWidth=1;fontFamily=Verdana;fontSize=12;fontColor=#000000;" parent="1c1d494c118603dd-1" source="60571a20871a0731-4" edge="1">
          <mxGeometry relative="1" as="geometry">
            <mxPoint x="560" y="180" as="targetPoint"/>
            <Array as="points">
              <mxPoint x="80" y="140"/>
              <mxPoint x="560" y="140"/>
            </Array>
          </mxGeometry>
        </mxCell>
        <mxCell id="1c1d494c118603dd-4" value="Sistema" style="swimlane;html=1;startSize=20;" parent="1c1d494c118603dd-1" vertex="1">
          <mxGeometry x="390" y="20" width="360" height="970" as="geometry"/>
        </mxCell>
        <mxCell id="60571a20871a0731-5" value="" style="shape=mxgraph.bpmn.shape;html=1;verticalLabelPosition=bottom;labelBackgroundColor=#ffffff;verticalAlign=top;perimeter=ellipsePerimeter;outline=end;symbol=terminate;rounded=0;shadow=0;comic=0;strokeColor=#000000;strokeWidth=1;fillColor=#ffffff;fontFamily=Verdana;fontSize=12;fontColor=#000000;align=center;" parent="1c1d494c118603dd-4" vertex="1">
          <mxGeometry x="272.5" y="370" width="40" height="40" as="geometry"/>
        </mxCell>
        <mxCell id="Yj37nVMUqHgawkQzmIC0-4" value="" style="edgeStyle=orthogonalEdgeStyle;rounded=0;orthogonalLoop=1;jettySize=auto;html=1;" edge="1" parent="1c1d494c118603dd-4" source="Yj37nVMUqHgawkQzmIC0-2">
          <mxGeometry relative="1" as="geometry">
            <mxPoint x="50" y="240" as="targetPoint"/>
            <Array as="points">
              <mxPoint x="50" y="200"/>
            </Array>
          </mxGeometry>
        </mxCell>
        <mxCell id="Yj37nVMUqHgawkQzmIC0-2" value="" style="rhombus;whiteSpace=wrap;html=1;" vertex="1" parent="1c1d494c118603dd-4">
          <mxGeometry x="130" y="160" width="80" height="80" as="geometry"/>
        </mxCell>
        <mxCell id="Yj37nVMUqHgawkQzmIC0-5" value="&lt;div&gt;Grupo excede&lt;/div&gt;&lt;div&gt;número miembros&lt;/div&gt;&lt;div&gt;permitidio&lt;br&gt;&lt;/div&gt;" style="text;html=1;resizable=0;points=[];autosize=1;align=left;verticalAlign=top;spacingTop=-4;" vertex="1" parent="1c1d494c118603dd-4">
          <mxGeometry x="45" y="150" width="110" height="40" as="geometry"/>
        </mxCell>
        <mxCell id="Yj37nVMUqHgawkQzmIC0-7" value="&lt;div&gt;Grupo no excede&lt;/div&gt;&lt;div&gt;número de miembros&lt;/div&gt;&lt;div&gt;permitido&lt;br&gt;&lt;/div&gt;" style="text;html=1;resizable=0;points=[];autosize=1;align=left;verticalAlign=top;spacingTop=-4;" vertex="1" parent="1c1d494c118603dd-4">
          <mxGeometry x="210" y="150" width="130" height="40" as="geometry"/>
        </mxCell>
        <mxCell id="Yj37nVMUqHgawkQzmIC0-14" value="" style="edgeStyle=orthogonalEdgeStyle;rounded=0;orthogonalLoop=1;jettySize=auto;html=1;" edge="1" parent="1c1d494c118603dd-4" source="Yj37nVMUqHgawkQzmIC0-8" target="Yj37nVMUqHgawkQzmIC0-15">
          <mxGeometry relative="1" as="geometry">
            <mxPoint x="330" y="310" as="targetPoint"/>
            <Array as="points">
              <mxPoint x="190" y="255"/>
            </Array>
          </mxGeometry>
        </mxCell>
        <mxCell id="Yj37nVMUqHgawkQzmIC0-8" value="Se divide el número de integrantes del grupo entre 2, la primera mitad se queda en el grupo actual, la otra mitad es movida al nuevo grupo" style="rounded=1;whiteSpace=wrap;html=1;shadow=0;comic=0;labelBackgroundColor=none;strokeColor=#000000;strokeWidth=1;fillColor=#ffffff;fontFamily=Verdana;fontSize=12;fontColor=#000000;align=center;arcSize=50;" vertex="1" parent="1c1d494c118603dd-4">
          <mxGeometry x="35" y="430" width="250" height="90" as="geometry"/>
        </mxCell>
        <mxCell id="Yj37nVMUqHgawkQzmIC0-11" value="" style="edgeStyle=orthogonalEdgeStyle;rounded=0;orthogonalLoop=1;jettySize=auto;html=1;" edge="1" parent="1c1d494c118603dd-4" source="Yj37nVMUqHgawkQzmIC0-9" target="Yj37nVMUqHgawkQzmIC0-10">
          <mxGeometry relative="1" as="geometry"/>
        </mxCell>
        <mxCell id="Yj37nVMUqHgawkQzmIC0-9" value="Crea un nuevo grupo" style="rounded=1;whiteSpace=wrap;html=1;shadow=0;comic=0;labelBackgroundColor=none;strokeColor=#000000;strokeWidth=1;fillColor=#ffffff;fontFamily=Verdana;fontSize=12;fontColor=#000000;align=center;arcSize=50;" vertex="1" parent="1c1d494c118603dd-4">
          <mxGeometry y="240" width="140" height="30" as="geometry"/>
        </mxCell>
        <mxCell id="Yj37nVMUqHgawkQzmIC0-12" value="" style="edgeStyle=orthogonalEdgeStyle;rounded=0;orthogonalLoop=1;jettySize=auto;html=1;" edge="1" parent="1c1d494c118603dd-4" source="Yj37nVMUqHgawkQzmIC0-10" target="Yj37nVMUqHgawkQzmIC0-8">
          <mxGeometry relative="1" as="geometry"/>
        </mxCell>
        <mxCell id="Yj37nVMUqHgawkQzmIC0-10" value="[Grupo]" style="rounded=0;whiteSpace=wrap;html=1;shadow=0;comic=0;labelBackgroundColor=none;strokeColor=#000000;strokeWidth=1;fillColor=#ffffff;fontFamily=Verdana;fontSize=12;fontColor=#000000;align=center;arcSize=50;" vertex="1" parent="1c1d494c118603dd-4">
          <mxGeometry x="10" y="350" width="120" height="30" as="geometry"/>
        </mxCell>
        <mxCell id="Yj37nVMUqHgawkQzmIC0-17" value="" style="edgeStyle=orthogonalEdgeStyle;rounded=0;orthogonalLoop=1;jettySize=auto;html=1;" edge="1" parent="1c1d494c118603dd-4" source="Yj37nVMUqHgawkQzmIC0-15">
          <mxGeometry relative="1" as="geometry">
            <mxPoint x="292.5" y="370" as="targetPoint"/>
          </mxGeometry>
        </mxCell>
        <mxCell id="Yj37nVMUqHgawkQzmIC0-15" value="Muestra mensaje &quot;Usted se ha unido al grupo&quot;" style="rounded=1;whiteSpace=wrap;html=1;shadow=0;comic=0;labelBackgroundColor=none;strokeColor=#000000;strokeWidth=1;fillColor=#ffffff;fontFamily=Verdana;fontSize=12;fontColor=#000000;align=center;arcSize=50;" vertex="1" parent="1c1d494c118603dd-4">
          <mxGeometry x="230" y="220" width="125" height="70" as="geometry"/>
        </mxCell>
        <mxCell id="Yj37nVMUqHgawkQzmIC0-6" style="edgeStyle=orthogonalEdgeStyle;rounded=0;orthogonalLoop=1;jettySize=auto;html=1;exitX=1;exitY=0.5;exitDx=0;exitDy=0;" edge="1" parent="1" source="Yj37nVMUqHgawkQzmIC0-2">
          <mxGeometry relative="1" as="geometry">
            <mxPoint x="770" y="260" as="targetPoint"/>
            <Array as="points">
              <mxPoint x="770" y="240"/>
            </Array>
          </mxGeometry>
        </mxCell>
      </root>
    </mxGraphModel>
  </diagram>
</mxfile>
